<svg width="9933" height="7017" viewBox="0 0 9933 7017" fill="none" xmlns="http://www.w3.org/2000/svg">
<g filter="url(#filter0_f_1366_15373)">
<path d="M7275.28 -2474C8541.84 -2397.22 9506.18 -1305.58 9429.2 -35.7751C9352.22 1234.03 8263.06 2201.18 6996.5 2124.39C5729.94 2047.61 3818.26 1037.3 3895.25 -232.504C3972.23 -1502.31 6008.72 -2550.79 7275.28 -2474Z" fill="#F3B6AE"/>
<path d="M5898.08 2669.7C7164.64 2746.48 8128.98 3838.11 8052 5107.92C7975.02 6377.73 7683.06 9308.28 6416.5 9231.5C5149.94 9154.71 2285.52 6377.73 2362.5 5107.92C2439.48 3838.11 4631.51 2592.91 5898.08 2669.7Z" fill="#FFCBDB"/>
<path d="M10883.2 4203.76C12460.9 4299.41 14810.6 6123.82 14714.9 7701.65C14619.2 9279.48 12114.5 10013.3 10536.8 9917.61C8959.1 9821.96 7757.66 8465.33 7853.32 6887.5C7948.97 5309.67 9305.51 4108.11 10883.2 4203.76Z" fill="#FFD3C6"/>
<path d="M4948.27 -905.715C6525.97 -810.067 7727.4 546.561 7631.75 2124.39C7536.09 3702.23 6179.57 4903.78 4601.87 4808.14C3024.16 4712.49 1822.73 3355.85 1918.39 1778.02C2014.05 200.186 3370.57 -1001.36 4948.27 -905.715Z" fill="#FFDEB7"/>
<path d="M10049.2 -2116.05C11875.2 -2005.35 13313.6 -437.44 13203.2 1382.41C13092.9 3202.26 11475.7 4584.93 9649.71 4474.22C7823.72 4363.52 6432.91 2798.5 6543.24 978.647C6653.57 -841.204 8223.26 -2226.75 10049.2 -2116.05Z" fill="#BBC2F1"/>
</g>
<defs>
<filter id="filter0_f_1366_15373" x="-1086.95" y="-5477.97" width="18804.7" height="18403.8" filterUnits="userSpaceOnUse" color-interpolation-filters="sRGB">
<feFlood flood-opacity="0" result="BackgroundImageFix"/>
<feBlend mode="normal" in="SourceGraphic" in2="BackgroundImageFix" result="shape"/>
<feGaussianBlur stdDeviation="1500" result="effect1_foregroundBlur_1366_15373"/>
</filter>
</defs>
</svg>
