<svg width="178" height="27" viewBox="0 0 178 27" fill="none" xmlns="http://www.w3.org/2000/svg">
<path d="M0.893799 1.46753C2.38547 1.61625 6.28366 1.91819 9.58247 2.0669C11.1024 2.13543 12.2864 2.51305 34.1658 2.66628C56.0452 2.8195 98.5782 2.8195 121.158 2.89386C143.739 2.96822 145.077 3.11693 145.99 3.2679C146.902 3.41887 147.348 3.56759 146.983 3.86728C146.618 4.16696 145.429 4.61312 133.067 5.14038C120.705 5.66765 97.2082 6.26252 84.0626 6.71768C70.9169 7.17285 68.8348 7.47028 65.9777 7.69786C59.5606 8.209 52.3047 8.97097 46.6738 10.172C44.1504 10.7102 42.0703 11.9723 39.8148 13.6984C39.0812 14.2597 39.6413 14.6808 40.3173 14.9084C41.8458 15.423 43.8459 15.7353 47.3565 16.4091C49.8099 16.8799 53.6928 17.2315 65.0538 17.5357C76.4149 17.8399 95.1532 17.9886 106.07 17.9909C116.988 17.9931 119.516 17.8444 120.595 17.8422C123.724 17.8356 110.115 20.3951 101.78 22.9391C95.9299 24.7247 115.343 22.8016 123.029 22.351C128.922 22.0054 138.894 22.1978 148.117 22.7926C157.339 23.3875 165.519 24.5772 170.253 25.1901C174.987 25.803 176.028 25.803 177.101 25.803" stroke="black" stroke-linecap="round"/>
</svg>
